<svg xmlns="http://www.w3.org/2000/svg" width="36" height="36" viewBox="0 0 36 36">
  <g id="Food_Trip" data-name="Food Trip" transform="translate(0.943 3)">
    <rect id="Rectangle_467" data-name="Rectangle 467" width="36" height="36" transform="translate(-0.943 -3)" fill="#fff" opacity="0"/>
    <g id="Group_2126" data-name="Group 2126">
      <circle id="Ellipse_17" data-name="Ellipse 17" cx="9.5" cy="9.5" r="9.5" transform="translate(15.057 12)" fill="#f4e072"/>
      <path id="Path_481" data-name="Path 481" d="M26.051,13A13,13,0,0,0,3.864,3.808a13,13,0,0,0,15.231,20.7,3.445,3.445,0,0,0,5.02-4.681A12.938,12.938,0,0,0,26.051,13ZM4.941,21.115A11.475,11.475,0,1,1,21.167,4.885a11.484,11.484,0,0,1,1.851,13.81L21.55,17.226a7.649,7.649,0,0,0,.64-3.062.762.762,0,0,0-1.523,0c0,3.753-3.415,6.806-7.612,6.806s-7.612-3.053-7.612-6.806a.762.762,0,0,0-1.523,0c0,4.593,4.1,8.329,9.135,8.329a9.858,9.858,0,0,0,3.411-.6l1.488,1.488A11.471,11.471,0,0,1,4.941,21.115ZM19.729,23l-1.8-1.8a8.845,8.845,0,0,0,2.844-2.595l1.979,1.979a1.923,1.923,0,1,1-2.719,2.719Z" fill="#333"/>
      <path id="Path_482" data-name="Path 482" d="M114.189,152.453a.762.762,0,0,0,.762-.762,1.1,1.1,0,1,1,2.2,0,.762.762,0,0,0,1.523,0,2.622,2.622,0,1,0-5.244,0A.762.762,0,0,0,114.189,152.453Z" transform="translate(-107.613 -141.499)"/>
      <path id="Path_483" data-name="Path 483" d="M294.483,152.453a.762.762,0,0,0,.762-.762,1.1,1.1,0,1,1,2.2,0,.762.762,0,1,0,1.523,0,2.622,2.622,0,1,0-5.244,0A.762.762,0,0,0,294.483,152.453Z" transform="translate(-278.752 -141.499)"/>
    </g>
  </g>
</svg>
