<svg xmlns="http://www.w3.org/2000/svg" width="36" height="36" viewBox="0 0 36 36">
  <g id="home" transform="translate(-78 -99.28)">
    <rect id="Rectangle_465" data-name="Rectangle 465" width="36" height="36" transform="translate(78 99.28)" fill="#fff" opacity="0"/>
    <g id="Group_2124" data-name="Group 2124" transform="translate(1 1.28)">
      <circle id="Ellipse_15" data-name="Ellipse 15" cx="9.5" cy="9.5" r="9.5" transform="translate(78 102)" fill="#c1a4fa"/>
      <path id="home-2" data-name="home" d="M25.8,11.309l0,0L15.191.7a2.393,2.393,0,0,0-3.385,0L1.205,11.3l-.011.011A2.393,2.393,0,0,0,2.787,15.39c.025,0,.049,0,.074,0h.423v7.8a2.8,2.8,0,0,0,2.8,2.8h4.149A.762.762,0,0,0,11,25.238V19.119a1.28,1.28,0,0,1,1.278-1.278h2.447A1.279,1.279,0,0,1,16,19.119v6.119a.762.762,0,0,0,.762.762h4.149a2.8,2.8,0,0,0,2.8-2.8v-7.8H24.1A2.394,2.394,0,0,0,25.8,11.309ZM24.72,13.615a.865.865,0,0,1-.615.255H22.951a.762.762,0,0,0-.762.762V23.2a1.279,1.279,0,0,1-1.278,1.278H17.524V19.119a2.8,2.8,0,0,0-2.8-2.8H12.275a2.8,2.8,0,0,0-2.8,2.8v5.357H6.085A1.28,1.28,0,0,1,4.807,23.2V14.632a.762.762,0,0,0-.762-.762H2.912l-.036,0a.869.869,0,0,1-.6-1.484h0L12.883,1.778a.87.87,0,0,1,1.23,0l10.6,10.6,0,0A.872.872,0,0,1,24.72,13.615Zm0,0" transform="translate(85.5 104)" fill="#333"/>
    </g>
  </g>
</svg>
