<svg xmlns="http://www.w3.org/2000/svg" width="36" height="36" viewBox="0 0 36 36">
  <g id="Group_191" data-name="Group 191" transform="translate(-78.301 -492)">
    <rect id="Rectangle_471" data-name="Rectangle 471" width="36" height="36" transform="translate(78.301 492)" fill="#fff" opacity="0"/>
    <g id="Group_2393" data-name="Group 2393">
      <circle id="Ellipse_21" data-name="Ellipse 21" cx="9.5" cy="9.5" r="9.5" transform="translate(95 495)" fill="#ffc1c1"/>
      <path id="suitcase" d="M24.7,3.9H19.067V2.167A2.169,2.169,0,0,0,16.9,0H9.1A2.169,2.169,0,0,0,6.933,2.167V3.9H1.3A1.3,1.3,0,0,0,0,5.2v9.646a1.306,1.306,0,0,0,.867,1.223V22.1a1.3,1.3,0,0,0,1.3,1.3H23.833a1.3,1.3,0,0,0,1.3-1.3V16.07A1.306,1.306,0,0,0,26,14.846V5.2A1.3,1.3,0,0,0,24.7,3.9ZM7.8,2.167A1.3,1.3,0,0,1,9.1.867h7.8a1.3,1.3,0,0,1,1.3,1.3V3.9h-.867V2.167a.433.433,0,0,0-.433-.433H9.1a.433.433,0,0,0-.433.433V3.9H7.8ZM16.467,3.9H9.533V2.6h6.933Zm7.8,18.2a.433.433,0,0,1-.433.433H2.167a.433.433,0,0,1-.433-.433V16.218l9.533,1.315v1.1a1.3,1.3,0,0,0,1.3,1.3h.867a1.3,1.3,0,0,0,1.3-1.3v-1.1l9.533-1.315Zm-10.4-3.467a.433.433,0,0,1-.433.433h-.867a.433.433,0,0,1-.433-.433v-2.6a.433.433,0,0,1,.433-.433h.867a.433.433,0,0,1,.433.433Zm11.267-3.787a.433.433,0,0,1-.373.43l-.12.017-9.907,1.366v-.625a1.3,1.3,0,0,0-1.3-1.3h-.867a1.3,1.3,0,0,0-1.3,1.3v.625L1.24,15.275a.433.433,0,0,1-.373-.43V5.2A.433.433,0,0,1,1.3,4.767H24.7a.433.433,0,0,1,.433.433Zm0,0" transform="translate(79.301 501)" fill="#333" stroke="#333" stroke-width="0.3"/>
    </g>
  </g>
</svg>
