<svg xmlns="http://www.w3.org/2000/svg" width="36" height="36" viewBox="0 0 36 36">
  <g id="New_Pinoys_on_the_Block" data-name="New Pinoys on the Block" transform="translate(-71 -440)">
    <rect id="Rectangle_470" data-name="Rectangle 470" width="36" height="36" transform="translate(71 440)" fill="#fff" opacity="0"/>
    <g id="Group_2129" data-name="Group 2129" transform="translate(0.001 4)">
      <circle id="Ellipse_20" data-name="Ellipse 20" cx="9.5" cy="9.5" r="9.5" transform="translate(79 452)" fill="#e7b6fd"/>
      <g id="friend" transform="translate(74 436.044)">
        <path id="Path_488" data-name="Path 488" d="M11.107,13.32A5.682,5.682,0,1,0,5.425,7.642a5.682,5.682,0,0,0,5.682,5.678Zm0-9.513A3.831,3.831,0,1,1,7.276,7.642a3.831,3.831,0,0,1,3.831-3.835Z" transform="translate(-0.33 0)" fill="#333"/>
        <path id="Path_489" data-name="Path 489" d="M23.392,17.33a4.305,4.305,0,1,0-4.305-4.305,4.305,4.305,0,0,0,4.305,4.305Zm0-6.756a2.454,2.454,0,1,1-2.454,2.454,2.454,2.454,0,0,1,2.454-2.454Z" transform="translate(-1.349 -0.504)" fill="#333"/>
        <path id="Path_490" data-name="Path 490" d="M22.2,20.939a6.087,6.087,0,0,0-3.114.877,9.7,9.7,0,0,0-8.152-4.72C5.458,17.1,1,22.025,1,28.083a.925.925,0,0,0,1.851,0c0-5.038,3.628-9.132,8.087-9.132s8.087,4.1,8.087,9.135a.925.925,0,1,0,1.851,0,11.86,11.86,0,0,0-.937-4.627,4.257,4.257,0,0,1,2.265-.666c2.6,0,4.708,2.406,4.708,5.368a.925.925,0,0,0,1.851,0c0-3.984-2.942-7.22-6.559-7.22Z" transform="translate(0 -1.129)" fill="#333"/>
      </g>
    </g>
  </g>
</svg>
