<svg xmlns="http://www.w3.org/2000/svg" width="36.25" height="36" viewBox="0 0 36.25 36">
  <g id="Group_192" data-name="Group 192" transform="translate(-73 -565)">
    <rect id="Rectangle_472" data-name="Rectangle 472" width="36" height="36" transform="translate(73 565)" fill="#fff" opacity="0"/>
    <g id="tongue-out" transform="translate(77.943 572.999)">
      <circle id="Ellipse_17" data-name="Ellipse 17" cx="9" cy="9" r="9" transform="translate(-4.943 -5)" fill="#ffd7aa"/>
      <path id="user_2_" data-name="user (2)" d="M9.288,11.429a.43.43,0,0,0-.43.43v.9a.43.43,0,1,0,.86,0v-.9A.43.43,0,0,0,9.288,11.429Zm10.792,0a.43.43,0,0,0-.43.43v.9a.43.43,0,0,0,.86,0v-.9A.43.43,0,0,0,20.08,11.429ZM16.39,12.47a.43.43,0,0,0-.607.042,1.455,1.455,0,0,1-2.2,0,.43.43,0,0,0-.649.565,2.316,2.316,0,0,0,3.494,0A.43.43,0,0,0,16.39,12.47ZM27.123,9.112a9.115,9.115,0,0,0-.39-1.6c.313-.2.615-.4.9-.624A1.315,1.315,0,0,0,27.641,4.8c-.412-.319-2.424-1.705-2.758-1.95a.43.43,0,1,0-.509.693c.328.241,2.335,1.623,2.74,1.937a.455.455,0,0,1,0,.721,11.62,11.62,0,0,1-1.121.756l-.015.009A13.962,13.962,0,0,1,22.3,8.459l-.037.009A18.445,18.445,0,0,1,17.794,9a18.893,18.893,0,0,1-3.106-.252C11.761,8.26,9.457,7.125,8.523,5.716l-.008-.01L8.5,5.686l-.013-.015-.015-.017L8.458,5.64l-.016-.014-.016-.013L8.409,5.6l-.017-.011-.018-.011-.019-.01L8.335,5.56l-.02-.008L8.3,5.545l-.023-.006-.013,0H8.255l-.024,0-.019,0-.021,0H8.128l-.017,0-.024,0-.019,0-.022.005-.019.006-.021.007-.017.008-.021.01-.015.009-.022.013,0,0-.01.008-.02.015-.015.012-.017.015-.014.015-.014.016-.013.016L7.81,5.71,7.8,5.727l-.011.019-.009.018-.009.019-.008.02-.007.019-.006.023,0,.013a7.516,7.516,0,0,1-4.275,5.519.309.309,0,0,1-.289-.012.283.283,0,0,1-.144-.227A8.565,8.565,0,0,1,5.375,4.592,12.57,12.57,0,0,1,14.684.86a16.936,16.936,0,0,1,9.675,2.658.43.43,0,1,0,.458-.728A17.737,17.737,0,0,0,14.684,0,13.429,13.429,0,0,0,4.742,4.01a9.633,9.633,0,0,0-2.494,5.1,3.379,3.379,0,0,0,.775,6.544,10.993,10.993,0,0,0,3.4,4.8,24.254,24.254,0,0,0,2.066,1.409l.834.423a23.738,23.738,0,0,0,5.363,1.213,23.738,23.738,0,0,0,5.363-1.213l.834-.423a24.254,24.254,0,0,0,2.066-1.409,10.993,10.993,0,0,0,3.4-4.8,3.379,3.379,0,0,0,.777-6.544ZM.86,12.3a2.52,2.52,0,0,1,1.294-2.2,9.11,9.11,0,0,0,.024,1.116,1.148,1.148,0,0,0,.284.664c0,.14-.008.282-.008.422a10.183,10.183,0,0,0,.295,2.437A2.532,2.532,0,0,1,.86,12.3ZM22.4,19.8a12.33,12.33,0,0,1-2.43,1.579.425.425,0,0,0-.1.048,12,12,0,0,1-5.182,1.219A12,12,0,0,1,9.5,21.426a.429.429,0,0,0-.1-.048A12.32,12.32,0,0,1,6.972,19.8a9.7,9.7,0,0,1-3.657-7.5c0-.01,0-.02,0-.03h.021a1.176,1.176,0,0,0,.5-.11,8.272,8.272,0,0,0,4.53-5.285A11.5,11.5,0,0,0,14.545,9.6a19.727,19.727,0,0,0,3.26.269,19.558,19.558,0,0,0,3.486-.31q.457-.083.9-.188a8.174,8.174,0,0,0,3.342,2.786,1.177,1.177,0,0,0,.5.11h.021c0,.01,0,.02,0,.03A9.7,9.7,0,0,1,22.4,19.8Zm3.935-8.661a.284.284,0,0,1-.144.227.309.309,0,0,1-.289.012,7.372,7.372,0,0,1-2.815-2.242,15.076,15.076,0,0,0,2.889-1.179A8.219,8.219,0,0,1,26.3,9.462a.459.459,0,0,0,.007.058A8.244,8.244,0,0,1,26.332,11.138Zm.287,3.6a10.183,10.183,0,0,0,.295-2.437c0-.141,0-.282-.008-.422a1.15,1.15,0,0,0,.284-.664,9.2,9.2,0,0,0,.024-1.115,2.519,2.519,0,0,1-.595,4.639Zm0,0" transform="translate(1.688 1.058)" fill="#333" stroke="#333" stroke-width="0.5"/>
    </g>
  </g>
</svg>
