<svg xmlns="http://www.w3.org/2000/svg" width="36" height="36" viewBox="0 0 36 36">
  <g id="Group_192" data-name="Group 192" transform="translate(-73 -565)">
    <rect id="Rectangle_472" data-name="Rectangle 472" width="36" height="36" transform="translate(73 565)" fill="#fff" opacity="0"/>
    <g id="Group_2131" data-name="Group 2131" transform="translate(0 -1)">
      <circle id="Ellipse_22" data-name="Ellipse 22" cx="9.5" cy="9.5" r="9.5" transform="translate(75 581)" fill="#98ffbc"/>
      <g id="calendar_1_" data-name="calendar (1)" transform="translate(81 568)">
        <path id="Path_495" data-name="Path 495" d="M22.648,2.031H20.313V.813a.813.813,0,0,0-1.625,0V2.031H7.313V.813a.813.813,0,0,0-1.625,0V2.031H3.352A3.355,3.355,0,0,0,0,5.383V22.648A3.355,3.355,0,0,0,3.352,26h19.3A3.355,3.355,0,0,0,26,22.648V5.383A3.355,3.355,0,0,0,22.648,2.031ZM3.352,3.656H5.688v.813a.813.813,0,0,0,1.625,0V3.656H18.688v.813a.813.813,0,0,0,1.625,0V3.656h2.336a1.728,1.728,0,0,1,1.727,1.727v1.93H1.625V5.383A1.728,1.728,0,0,1,3.352,3.656Zm19.3,20.719H3.352a1.728,1.728,0,0,1-1.727-1.727V8.938h22.75V22.648A1.728,1.728,0,0,1,22.648,24.375Z" fill="#333" stroke="#fff" stroke-width="0.3"/>
      </g>
    </g>
  </g>
</svg>
