<svg xmlns="http://www.w3.org/2000/svg" width="36" height="36" viewBox="0 0 36 36">
  <g id="shop" transform="translate(5 -3)">
    <rect id="Rectangle_468" data-name="Rectangle 468" width="36" height="36" transform="translate(-5 3)" fill="#fff" opacity="0"/>
    <g id="Group_2127" data-name="Group 2127">
      <circle id="Ellipse_18" data-name="Ellipse 18" cx="9.5" cy="9.5" r="9.5" transform="translate(-3 18)" fill="#8ce6fc"/>
      <g id="flower-shop" transform="translate(3 4)">
        <path id="Path_484" data-name="Path 484" d="M25.212,24.477H24.45V8.082a3.158,3.158,0,0,0,1.16-4.238L23.893.421A.762.762,0,0,0,23.212,0H2.895a.761.761,0,0,0-.672.4L.347,3.941A3.156,3.156,0,0,0,1.523,8.06V24.477H.762A.762.762,0,0,0,.762,26h24.45a.762.762,0,0,0,0-1.523ZM3.353,1.523H22.741l1.578,3.14a1.607,1.607,0,0,1,.158.7,1.686,1.686,0,0,1-3.371,0,.762.762,0,1,0-1.523,0,1.686,1.686,0,0,1-3.371,0,.762.762,0,1,0-1.523,0,1.686,1.686,0,0,1-3.371,0,.762.762,0,1,0-1.523,0,1.686,1.686,0,0,1-3.371,0,.762.762,0,1,0-1.523,0,1.686,1.686,0,0,1-3.371,0,1.609,1.609,0,0,1,.193-.769ZM3.046,8.535c.056,0,.113,0,.17,0A3.216,3.216,0,0,0,5.663,7.416a3.225,3.225,0,0,0,4.894,0,3.225,3.225,0,0,0,4.894,0,3.225,3.225,0,0,0,4.894,0A3.216,3.216,0,0,0,22.791,8.54c.045,0,.09,0,.135,0v15.94H3.046Z" fill="#333"/>
      </g>
    </g>
  </g>
</svg>
