<svg xmlns="http://www.w3.org/2000/svg" width="36.275" height="36" viewBox="0 0 36.275 36">
  <g id="Tambayan_Donasyon_atbp_" data-name="Tambayan, Donasyon, atbp…" transform="translate(-80.725 -625)">
    <rect id="Rectangle_473" data-name="Rectangle 473" width="36" height="36" transform="translate(81 625)" fill="#fff" opacity="0"/>
    <g id="Group_2132" data-name="Group 2132" transform="translate(1 -1)">
      <circle id="Ellipse_23" data-name="Ellipse 23" cx="9.5" cy="9.5" r="9.5" transform="translate(97 630)" fill="#bcc9ff"/>
      <g id="Out_line" data-name="Out line" transform="translate(80 634.485)">
        <path id="Path_36641" data-name="Path 36641" d="M21.219,103.03H41.712a3.136,3.136,0,0,0,2.765-1.651L46.726,97.2a6.166,6.166,0,0,0-3.84-8.88l-3.417-.911-.443-1.033A10.511,10.511,0,0,0,29.354,80H27.061a10.523,10.523,0,0,0-9.487,5.969,15.928,15.928,0,0,0,.632,14.992l.306.521a3.153,3.153,0,0,0,2.707,1.548Zm8.135-21.983a9.466,9.466,0,0,1,8.71,5.743l.543,1.267a.523.523,0,0,0,.346.3l3.663.977A5.119,5.119,0,0,1,45.8,96.706l-2.249,4.176a2.091,2.091,0,0,1-1.843,1.1H21.219a2.1,2.1,0,0,1-1.8-1.032l-.306-.521a14.883,14.883,0,0,1-.59-14.008,9.476,9.476,0,0,1,8.543-5.376Z" transform="translate(-16 -80)" fill="#333" stroke="#333" stroke-width="0.3"/>
        <path id="Path_36642" data-name="Path 36642" d="M94.219,163.821l1.8,3.952a2.563,2.563,0,0,0,2.328,1.5,14.138,14.138,0,0,0,1.485-.079,10.1,10.1,0,0,0-1.518-2.9l-1.846-2.461.837-.628,1.846,2.461a11.161,11.161,0,0,1,1.4,2.461,11.161,11.161,0,0,1,1.4-2.461l1.846-2.461.837.628-1.846,2.461a10.106,10.106,0,0,0-1.434,2.659q.579-.126,1.149-.3a15.268,15.268,0,0,1,9.651.243l1.138.414-.358.984-1.138-.414a14.215,14.215,0,0,0-8.985-.226,15.164,15.164,0,0,1-4.464.671,3.612,3.612,0,0,1-3.281-2.113l-1.8-3.952Z" transform="translate(-86.88 -157.757)" fill="#333" stroke="#333" stroke-width="0.3"/>
      </g>
    </g>
  </g>
</svg>
