<svg xmlns="http://www.w3.org/2000/svg" width="36" height="36" viewBox="0 0 36 36">
  <g id="Groups" transform="translate(-72 -770.485)">
    <rect id="Rectangle_475" data-name="Rectangle 475" width="36" height="36" transform="translate(72 770.485)" fill="#fff" opacity="0"/>
    <g id="Group_2134" data-name="Group 2134" transform="translate(2.001 2.485)">
      <circle id="Ellipse_28" data-name="Ellipse 28" cx="9.5" cy="9.5" r="9.5" transform="translate(71 783)" fill="#87ead7"/>
      <g id="chat_4_" data-name="chat (4)" transform="translate(80 770)">
        <path id="Path_507" data-name="Path 507" d="M23.129,15.914a8.959,8.959,0,0,0,1.7-5.225C24.828,5.346,20,1,14.069,1a10.984,10.984,0,0,0-9.66,5.426A9.415,9.415,0,0,0,0,14.241a8.96,8.96,0,0,0,1.7,5.225C1.488,21.774.93,23.485.121,24.294A.414.414,0,0,0,.414,25a.389.389,0,0,0,.058,0A19.166,19.166,0,0,0,6.4,23.1a11.673,11.673,0,0,0,4.363.832,11.175,11.175,0,0,0,8.627-3.906,20.829,20.829,0,0,0,4.97,1.419.393.393,0,0,0,.058,0,.414.414,0,0,0,.293-.706C23.9,19.932,23.339,18.221,23.129,15.914ZM10.759,23.1A10.9,10.9,0,0,1,7.3,22.545c1.38-.865,1.381-.933,1.38-1.167a.421.421,0,0,0-.2-.356.414.414,0,0,0-.55.112c-.2.16-1.038.694-1.78,1.152a16.423,16.423,0,0,1-4.779,1.706,11.938,11.938,0,0,0,1.17-4.608.415.415,0,0,0-.079-.28,8.152,8.152,0,0,1-1.63-4.862A8.618,8.618,0,0,1,5.042,7c.159-.1.32-.2.484-.288l.117-.065c.173-.093.35-.18.528-.263l.2-.09c.182-.08.366-.157.552-.227.065-.024.132-.046.2-.07q.221-.078.446-.146c.069-.021.137-.043.206-.062.194-.055.391-.1.59-.148.069-.015.139-.029.208-.043q.268-.054.539-.1l.125-.02c.218-.03.439-.052.66-.069l.173-.012c.23-.014.461-.024.693-.024,5.476,0,9.931,3.975,9.931,8.861,0,.2-.01.4-.025.6,0,.052-.008.1-.013.155-.017.183-.039.366-.069.547,0,.015,0,.031-.007.047-.032.189-.074.376-.12.562-.014.057-.029.114-.044.171-.044.164-.093.326-.147.487-.014.042-.029.085-.044.127-.056.158-.119.313-.185.468q-.04.092-.082.185c-.074.162-.152.322-.237.48-.025.046-.052.091-.077.136q-.112.2-.235.393c-.036.057-.072.114-.11.17-.1.153-.209.3-.322.451A10.3,10.3,0,0,1,10.759,23.1ZM19.9,19.349c.017-.025.031-.05.048-.075q.145-.214.277-.434c.05-.083.1-.166.142-.25s.1-.182.148-.275.088-.17.129-.257c.061-.127.118-.257.173-.387.042-.1.082-.2.12-.3s.086-.233.126-.35q.039-.119.075-.238c.039-.129.074-.259.107-.39.015-.06.032-.118.046-.178.043-.185.079-.373.109-.563.01-.059.017-.118.025-.178.021-.147.038-.3.051-.444.005-.06.011-.12.015-.18.014-.2.024-.4.024-.607,0-5.342-4.826-9.689-10.759-9.689-.2,0-.4.006-.591.015-.071,0-.142.01-.212.014-.123.008-.246.017-.368.029-.088.009-.175.02-.263.03s-.2.025-.306.04-.194.03-.291.047-.175.031-.262.048c-.106.021-.211.042-.315.066-.073.017-.146.034-.219.053-.114.028-.228.056-.341.087l-.149.044a11.428,11.428,0,0,0-1.27.454l-.089.037c-.038.017-.076.031-.114.048a10.4,10.4,0,0,1,8.1-3.737C19.545,1.828,24,5.8,24,10.689a8.155,8.155,0,0,1-1.63,4.862.412.412,0,0,0-.079.28,11.939,11.939,0,0,0,1.17,4.608A19.349,19.349,0,0,1,19.9,19.349Z" transform="translate(0)" fill="#333" stroke="#333" stroke-linejoin="round" stroke-width="0.4"/>
        <path id="Path_508" data-name="Path 508" d="M10.655,29a1.655,1.655,0,1,0,1.655,1.655A1.657,1.657,0,0,0,10.655,29Zm0,2.483a.828.828,0,1,1,.828-.828A.828.828,0,0,1,10.655,31.483Z" transform="translate(-5.276 -16.414)" fill="#333" stroke="#333" stroke-linejoin="round" stroke-width="0.4"/>
        <path id="Path_509" data-name="Path 509" d="M23.655,29a1.655,1.655,0,1,0,1.655,1.655A1.657,1.657,0,0,0,23.655,29Zm0,2.483a.828.828,0,1,1,.828-.828A.828.828,0,0,1,23.655,31.483Z" transform="translate(-12.897 -16.414)" fill="#333" stroke="#333" stroke-linejoin="round" stroke-width="0.4"/>
        <path id="Path_510" data-name="Path 510" d="M36.655,29a1.655,1.655,0,1,0,1.655,1.655A1.657,1.657,0,0,0,36.655,29Zm0,2.483a.828.828,0,1,1,.828-.828A.828.828,0,0,1,36.655,31.483Z" transform="translate(-20.517 -16.414)" fill="#333" stroke="#333" stroke-linejoin="round" stroke-width="0.4"/>
      </g>
    </g>
  </g>
</svg>
