<svg xmlns="http://www.w3.org/2000/svg" width="36" height="36" viewBox="0 0 36 36">
  <g id="What_s_up_Canada_" data-name="What’s up Canada?" transform="translate(-85 -168)">
    <rect id="Rectangle_466" data-name="Rectangle 466" width="36" height="36" transform="translate(85 168)" fill="#fff" opacity="0"/>
    <g id="Group_2125" data-name="Group 2125" transform="translate(2 4.28)">
      <circle id="Ellipse_16" data-name="Ellipse 16" cx="9.5" cy="9.5" r="9.5" transform="translate(84 176)" fill="#a1f4e4"/>
      <g id="outline" transform="translate(86.779 164.347)">
        <path id="Path_36640" data-name="Path 36640" d="M30.084,16.448a6.1,6.1,0,0,0-4.127-1.479l.131-.911a1.066,1.066,0,0,0-1.479-1.132l-2.756,1.193a.47.47,0,0,1-.521-.061.493.493,0,0,1-.16-.507l1.108-4.188a1.08,1.08,0,0,0-.239-.986,1.052,1.052,0,0,0-.939-.338l-1.244.183a5.733,5.733,0,0,0-2.892-3.794.47.47,0,0,0-.441,0A5.733,5.733,0,0,0,13.63,8.222l-1.244-.183a1.052,1.052,0,0,0-.939.338,1.08,1.08,0,0,0-.239.986l1.108,4.2a.493.493,0,0,1-.178.5.47.47,0,0,1-.521.075L8.859,12.941A1.066,1.066,0,0,0,7.38,14.058l.131.911a6.1,6.1,0,0,0-4.127,1.479.47.47,0,0,0-.16.423,5.325,5.325,0,0,0,1.1,2.564,5.25,5.25,0,0,0,1.409,1.24l-.535.784a1.061,1.061,0,0,0,.737,1.662l3.893.441a.493.493,0,0,1,.39.272.47.47,0,0,1,0,.47l-.939,1.629a1.066,1.066,0,0,0,.939,1.6H10.9a5.348,5.348,0,0,0,3.409-1.23l1.953-1.658v1.066a6.814,6.814,0,0,1-1.151,3.79l-.281.422a.469.469,0,0,0,.779.521l.282-.423a7.71,7.71,0,0,0,1.31-4.311V24.647L19.185,26.3a5.348,5.348,0,0,0,3.409,1.23h.686a1.066,1.066,0,0,0,.939-1.6L23.28,24.3a.47.47,0,0,1,0-.47.493.493,0,0,1,.39-.272l3.864-.441a1.061,1.061,0,0,0,.756-1.662l-.54-.784a5.25,5.25,0,0,0,1.409-1.24,5.325,5.325,0,0,0,1.085-2.559A.47.47,0,0,0,30.084,16.448Zm-1.672,2.4a4.4,4.4,0,0,1-1.564,1.23.471.471,0,0,0-.188.69l.841,1.216a.127.127,0,0,1,0,.127.117.117,0,0,1-.1.07l-3.893.441a1.437,1.437,0,0,0-1.08,2.151l.939,1.629a.124.124,0,0,1-.108.188h-.667a4.39,4.39,0,0,1-2.817-1.014L17.2,23.45h-.93L13.687,25.6a4.39,4.39,0,0,1-2.817,1.014h-.681a.124.124,0,0,1-.108-.188l.939-1.629a1.437,1.437,0,0,0-1.08-2.151L6.047,22.21a.117.117,0,0,1-.1-.07.127.127,0,0,1,0-.127L6.789,20.8a.471.471,0,0,0-.188-.69,4.325,4.325,0,0,1-2.4-3.113A5.165,5.165,0,0,1,8,15.937a.465.465,0,0,0,.521-.531L8.31,13.918a.113.113,0,0,1,.047-.117.117.117,0,0,1,.127,0L11.245,15A1.437,1.437,0,0,0,13.2,13.312l-1.1-4.2a.127.127,0,0,1,.141-.16l1.69.258a.47.47,0,0,0,.535-.4,4.818,4.818,0,0,1,.859-2.165,4.733,4.733,0,0,1,1.409-1.291,4.733,4.733,0,0,1,1.409,1.291A4.818,4.818,0,0,1,19.007,8.8a.47.47,0,0,0,.535.4l1.69-.258a.127.127,0,0,1,.113.042.117.117,0,0,1,.028.117l-1.1,4.2A1.437,1.437,0,0,0,22.223,15l2.761-1.2a.117.117,0,0,1,.127,0,.113.113,0,0,1,.047.117l-.216,1.489a.465.465,0,0,0,.521.531,5.165,5.165,0,0,1,3.808,1.052,4.442,4.442,0,0,1-.859,1.864Z" fill="#333" stroke="#333" stroke-width="0.3"/>
      </g>
    </g>
  </g>
</svg>
